# xmcd CD database file
#
# Track frame offsets:
#	150
#	10526
#	19403
#	34003
#	58464
#	81606
#	94602
#	106197
#	130620
#	144338
#	165682
#	178767
#	206254
#
# Disc length: 3083 seconds
#
# Revision: 0
# Processed by: cddbd v1.5.1PL0 Copyright (c) Steve Scherf et al.
# Submitted via: CDex 1.51
#
DISCID=a70c090d
DTITLE=Rix Glassmeyer - 24,200 mi.
DYEAR=2005
DGENRE=Jazz
TTITLE0=Climb Climb, Termite, On The Summit You Will Find The Jackpot
TTITLE1=The South Americans
TTITLE2=Devil With The Angel Head
TTITLE3=Mt. Engine
TTITLE4=Squeaky The Fire
TTITLE5=Shine These Leaves
TTITLE6=Metrorail
TTITLE7=Paul MacCready
TTITLE8=35
TTITLE9=Still With Other Faces
TTITLE10=Hat On
TTITLE11=Marty and Her Snowmobile
TTITLE12=Down and Nylon
EXTD=YEAR: 2005
EXTT0=
EXTT1=
EXTT2=
EXTT3=
EXTT4=
EXTT5=
EXTT6=
EXTT7=
EXTT8=
EXTT9=
EXTT10=
EXTT11=
EXTT12=
PLAYORDER=
